<svg width="103" height="47" viewBox="0 0 103 47" fill="none" xmlns="http://www.w3.org/2000/svg">
<path d="M0.112 23.472C0.112 19.0347 1.072 15.088 2.992 11.632C4.912 8.13333 7.57867 5.424 10.992 3.504C14.448 1.54133 18.352 0.559998 22.704 0.559998C28.0373 0.559998 32.6027 1.968 36.4 4.784C40.1973 7.6 42.736 11.44 44.016 16.304H31.984C31.088 14.4267 29.808 12.9973 28.144 12.016C26.5227 11.0347 24.6667 10.544 22.576 10.544C19.2053 10.544 16.4747 11.7173 14.384 14.064C12.2933 16.4107 11.248 19.5467 11.248 23.472C11.248 27.3973 12.2933 30.5333 14.384 32.88C16.4747 35.2267 19.2053 36.4 22.576 36.4C24.6667 36.4 26.5227 35.9093 28.144 34.928C29.808 33.9467 31.088 32.5173 31.984 30.64H44.016C42.736 35.504 40.1973 39.344 36.4 42.16C32.6027 44.9333 28.0373 46.32 22.704 46.32C18.352 46.32 14.448 45.36 10.992 43.44C7.57867 41.4773 4.912 38.768 2.992 35.312C1.072 31.856 0.112 27.9093 0.112 23.472ZM84.958 15.536C84.958 18.1387 84.3607 20.528 83.166 22.704C81.9713 24.8373 80.1367 26.5653 77.662 27.888C75.1873 29.2107 72.1153 29.872 68.446 29.872H61.662V46H50.718V1.072H68.446C72.03 1.072 75.0593 1.69066 77.534 2.928C80.0087 4.16533 81.8647 5.872 83.102 8.048C84.3393 10.224 84.958 12.72 84.958 15.536ZM67.614 21.168C69.7047 21.168 71.262 20.6773 72.286 19.696C73.31 18.7147 73.822 17.328 73.822 15.536C73.822 13.744 73.31 12.3573 72.286 11.376C71.262 10.3947 69.7047 9.904 67.614 9.904H61.662V21.168H67.614ZM95.7755 46.512C93.8555 46.512 92.2768 45.9573 91.0395 44.848C89.8448 43.696 89.2475 42.288 89.2475 40.624C89.2475 38.9173 89.8448 37.488 91.0395 36.336C92.2768 35.184 93.8555 34.608 95.7755 34.608C97.6528 34.608 99.1888 35.184 100.384 36.336C101.621 37.488 102.24 38.9173 102.24 40.624C102.24 42.288 101.621 43.696 100.384 44.848C99.1888 45.9573 97.6528 46.512 95.7755 46.512Z" fill="#0D095C"/>
</svg>
